<svg xmlns="http://www.w3.org/2000/svg" xmlns:xlink="http://www.w3.org/1999/xlink" contentStyleType="text/css" data-diagram-type="ACTIVITY" height="982px" preserveAspectRatio="none" style="width:2771px;height:982px;background:#FFFFFF;" version="1.1" viewBox="0 0 2771 982" width="2771px" zoomAndPan="magnify"><defs/><g><ellipse cx="1910.7583" cy="20" fill="#222222" rx="10" ry="10" style="stroke:#222222;stroke-width:1;"/><rect fill="#F1F1F1" height="33.9688" rx="12.5" ry="12.5" style="stroke:#181818;stroke-width:0.5;" width="376.5898" x="1722.4634" y="50"/><text fill="#000000" font-family="sans-serif" font-size="12" lengthAdjust="spacing" textLength="356.5898" x="1732.4634" y="71.1387">Receber par&#226;metros da transa&#231;&#227;o (tipo, valor, contas, etc.)</text><rect fill="#F1F1F1" height="33.9688" rx="12.5" ry="12.5" style="stroke:#181818;stroke-width:0.5;" width="404.7266" x="1708.395" y="103.9688"/><text fill="#000000" font-family="sans-serif" font-size="12" lengthAdjust="spacing" textLength="384.7266" x="1718.395" y="125.1074">Validar dados essenciais (ex: valor &gt; 0, conta de origem existe)</text><polygon fill="#F1F1F1" points="1826.1206,157.9375,1995.396,157.9375,2007.396,169.9375,1995.396,181.9375,1826.1206,181.9375,1814.1206,169.9375,1826.1206,157.9375" style="stroke:#181818;stroke-width:0.5;"/><text fill="#000000" font-family="sans-serif" font-size="11" lengthAdjust="spacing" textLength="169.2754" x="1826.1206" y="173.7456">Dados de entrada s&#227;o v&#225;lidos?</text><text fill="#000000" font-family="sans-serif" font-size="11" lengthAdjust="spacing" textLength="20.7539" x="1793.3667" y="167.3433">Sim</text><text fill="#000000" font-family="sans-serif" font-size="11" lengthAdjust="spacing" textLength="21.6992" x="2007.396" y="167.3433">N&#227;o</text><rect fill="#F1F1F1" height="33.9688" rx="12.5" ry="12.5" style="stroke:#181818;stroke-width:0.5;" width="381.8398" x="1012.2188" y="191.9375"/><text fill="#000000" font-family="sans-serif" font-size="12" lengthAdjust="spacing" textLength="361.8398" x="1022.2188" y="213.0762">Criar objeto Transacao na mem&#243;ria com os dados recebidos</text><polygon fill="#F1F1F1" points="283.5181,245.9063,455.9946,245.9063,467.9946,257.9063,455.9946,269.9063,283.5181,269.9063,271.5181,257.9063,283.5181,245.9063" style="stroke:#181818;stroke-width:0.5;"/><text fill="#000000" font-family="sans-serif" font-size="11" lengthAdjust="spacing" textLength="47.1904" x="373.7563" y="280.1167">Despesa</text><text fill="#000000" font-family="sans-serif" font-size="11" lengthAdjust="spacing" textLength="172.4766" x="283.5181" y="261.7144">tipo da transa&#231;&#227;o &#233; 'DESPESA'?</text><rect fill="#F1F1F1" height="33.9688" rx="12.5" ry="12.5" style="stroke:#181818;stroke-width:0.5;" width="326.8086" x="206.3521" y="301.6167"/><text fill="#000000" font-family="sans-serif" font-size="12" lengthAdjust="spacing" textLength="306.8086" x="216.3521" y="322.7554">Verificar se a conta de origem tem saldo suficiente</text><polygon fill="#F1F1F1" points="323.0654,355.5854,416.4473,355.5854,428.4473,367.5854,416.4473,379.5854,323.0654,379.5854,311.0654,367.5854,323.0654,355.5854" style="stroke:#181818;stroke-width:0.5;"/><text fill="#000000" font-family="sans-serif" font-size="11" lengthAdjust="spacing" textLength="93.3818" x="323.0654" y="371.3936">Saldo suficiente?</text><text fill="#000000" font-family="sans-serif" font-size="11" lengthAdjust="spacing" textLength="20.7539" x="290.3115" y="364.9912">Sim</text><text fill="#000000" font-family="sans-serif" font-size="11" lengthAdjust="spacing" textLength="21.6992" x="428.4473" y="364.9912">N&#227;o</text><rect fill="#F1F1F1" height="33.9688" rx="12.5" ry="12.5" style="stroke:#181818;stroke-width:0.5;" width="285.2188" x="63.8457" y="389.5854"/><text fill="#000000" font-family="sans-serif" font-size="12" lengthAdjust="spacing" textLength="265.2188" x="73.8457" y="410.7241">Debitar o valor do saldo da conta de origem</text><rect fill="#F1F1F1" height="33.9688" rx="12.5" ry="12.5" style="stroke:#181818;stroke-width:0.5;" width="298.8828" x="57.0137" y="458.5542"/><text fill="#000000" font-family="sans-serif" font-size="12" lengthAdjust="spacing" textLength="278.8828" x="67.0137" y="479.6929">Verificar se a transa&#231;&#227;o &#233; de cart&#227;o de cr&#233;dito</text><rect fill="#F1F1F1" height="33.9688" rx="12.5" ry="12.5" style="stroke:#181818;stroke-width:0.5;" width="231.8047" x="90.5527" y="575.9253"/><text fill="#000000" font-family="sans-serif" font-size="12" lengthAdjust="spacing" textLength="211.8047" x="100.5527" y="597.064">Associar transa&#231;&#227;o &#224; fatura correta</text><rect fill="#F1F1F1" height="33.9688" rx="12.5" ry="12.5" style="stroke:#181818;stroke-width:0.5;" width="208.1914" x="102.3594" y="644.894"/><text fill="#000000" font-family="sans-serif" font-size="12" lengthAdjust="spacing" textLength="188.1914" x="112.3594" y="666.0327">Atualizar o valor total da fatura</text><polygon fill="#F1F1F1" points="142.5605,527.5229,270.3496,527.5229,282.3496,539.5229,270.3496,551.5229,142.5605,551.5229,130.5605,539.5229,142.5605,527.5229" style="stroke:#181818;stroke-width:0.5;"/><text fill="#000000" font-family="sans-serif" font-size="11" lengthAdjust="spacing" textLength="20.7539" x="210.4551" y="561.7334">Sim</text><text fill="#000000" font-family="sans-serif" font-size="11" lengthAdjust="spacing" textLength="127.7891" x="142.5605" y="543.3311">&#201; de cart&#227;o de cr&#233;dito?</text><polygon fill="#F1F1F1" points="206.4551,702.6675,218.4551,714.6675,206.4551,726.6675,194.4551,714.6675,206.4551,702.6675" style="stroke:#181818;stroke-width:0.5;"/><rect fill="#F1F1F1" height="33.9688" rx="12.5" ry="12.5" style="stroke:#181818;stroke-width:0.5;" width="390.9102" x="11" y="761.6675"/><text fill="#000000" font-family="sans-serif" font-size="12" lengthAdjust="spacing" textLength="370.9102" x="21" y="782.8062">Salvar Transacao e atualizar Conta/Fatura no banco de dados</text><rect fill="#F1F1F1" height="33.9688" rx="12.5" ry="12.5" style="stroke:#181818;stroke-width:0.5;" width="285.166" x="63.8721" y="815.6362"/><text fill="#000000" font-family="sans-serif" font-size="12" lengthAdjust="spacing" textLength="265.166" x="73.8721" y="836.7749">Retornar "Despesa registrada com sucesso"</text><rect fill="#F1F1F1" height="33.9688" rx="12.5" ry="12.5" style="stroke:#181818;stroke-width:0.5;" width="222.2949" x="421.9102" y="389.5854"/><text fill="#000000" font-family="sans-serif" font-size="12" lengthAdjust="spacing" textLength="202.2949" x="431.9102" y="410.7241">Retornar erro "Saldo insuficiente"</text><polygon fill="#F1F1F1" points="369.7563,855.605,381.7563,867.605,369.7563,879.605,357.7563,867.605,369.7563,855.605" style="stroke:#181818;stroke-width:0.5;"/><polygon fill="#F1F1F1" points="743.8643,245.9063,912.5596,245.9063,924.5596,257.9063,912.5596,269.9063,743.8643,269.9063,731.8643,257.9063,743.8643,245.9063" style="stroke:#181818;stroke-width:0.5;"/><text fill="#000000" font-family="sans-serif" font-size="11" lengthAdjust="spacing" textLength="41.3359" x="832.2119" y="280.1167">Receita</text><text fill="#000000" font-family="sans-serif" font-size="11" lengthAdjust="spacing" textLength="168.6953" x="743.8643" y="261.7144">tipo da transa&#231;&#227;o &#233; 'RECEITA'?</text><rect fill="#F1F1F1" height="33.9688" rx="12.5" ry="12.5" style="stroke:#181818;stroke-width:0.5;" width="337.3086" x="659.5576" y="301.6167"/><text fill="#000000" font-family="sans-serif" font-size="12" lengthAdjust="spacing" textLength="317.3086" x="669.5576" y="322.7554">Creditar o valor ao saldo da conta de origem/destino</text><rect fill="#F1F1F1" height="33.9688" rx="12.5" ry="12.5" style="stroke:#181818;stroke-width:0.5;" width="348.0137" x="654.2051" y="355.5854"/><text fill="#000000" font-family="sans-serif" font-size="12" lengthAdjust="spacing" textLength="328.0137" x="664.2051" y="376.7241">Salvar Transacao e atualizar Conta no banco de dados</text><rect fill="#F1F1F1" height="33.9688" rx="12.5" ry="12.5" style="stroke:#181818;stroke-width:0.5;" width="278.7793" x="688.8223" y="424.5542"/><text fill="#000000" font-family="sans-serif" font-size="12" lengthAdjust="spacing" textLength="258.7793" x="698.8223" y="445.6929">Retornar "Receita registrada com sucesso"</text><polygon fill="#F1F1F1" points="1592.6667,245.9063,1806.2966,245.9063,1818.2966,257.9063,1806.2966,269.9063,1592.6667,269.9063,1580.6667,257.9063,1592.6667,245.9063" style="stroke:#181818;stroke-width:0.5;"/><text fill="#000000" font-family="sans-serif" font-size="11" lengthAdjust="spacing" textLength="75.4316" x="1703.4817" y="280.1167">Transfer&#234;ncia</text><text fill="#000000" font-family="sans-serif" font-size="11" lengthAdjust="spacing" textLength="213.6299" x="1592.6667" y="261.7144">tipo da transa&#231;&#227;o &#233; 'TRANSFERENCIA'?</text><text fill="#000000" font-family="sans-serif" font-size="11" lengthAdjust="spacing" textLength="70.2754" x="1818.2966" y="255.312">Tipo Inv&#225;lido</text><rect fill="#F1F1F1" height="33.9688" rx="12.5" ry="12.5" style="stroke:#181818;stroke-width:0.5;" width="349.4902" x="1524.7366" y="301.6167"/><text fill="#000000" font-family="sans-serif" font-size="12" lengthAdjust="spacing" textLength="329.4902" x="1534.7366" y="322.7554">Verificar se a conta de destino foi informada e &#233; v&#225;lida</text><polygon fill="#F1F1F1" points="1631.4058,355.5854,1767.5576,355.5854,1779.5576,367.5854,1767.5576,379.5854,1631.4058,379.5854,1619.4058,367.5854,1631.4058,355.5854" style="stroke:#181818;stroke-width:0.5;"/><text fill="#000000" font-family="sans-serif" font-size="11" lengthAdjust="spacing" textLength="136.1519" x="1631.4058" y="371.3936">Conta de destino v&#225;lida?</text><text fill="#000000" font-family="sans-serif" font-size="11" lengthAdjust="spacing" textLength="20.7539" x="1598.6519" y="364.9912">Sim</text><text fill="#000000" font-family="sans-serif" font-size="11" lengthAdjust="spacing" textLength="21.6992" x="1779.5576" y="364.9912">N&#227;o</text><rect fill="#F1F1F1" height="33.9688" rx="12.5" ry="12.5" style="stroke:#181818;stroke-width:0.5;" width="326.8086" x="1270.5513" y="389.5854"/><text fill="#000000" font-family="sans-serif" font-size="12" lengthAdjust="spacing" textLength="306.8086" x="1280.5513" y="410.7241">Verificar se a conta de origem tem saldo suficiente</text><polygon fill="#F1F1F1" points="1387.2646,458.5542,1480.6465,458.5542,1492.6465,470.5542,1480.6465,482.5542,1387.2646,482.5542,1375.2646,470.5542,1387.2646,458.5542" style="stroke:#181818;stroke-width:0.5;"/><text fill="#000000" font-family="sans-serif" font-size="11" lengthAdjust="spacing" textLength="93.3818" x="1387.2646" y="474.3623">Saldo suficiente?</text><text fill="#000000" font-family="sans-serif" font-size="11" lengthAdjust="spacing" textLength="20.7539" x="1354.5107" y="467.96">Sim</text><text fill="#000000" font-family="sans-serif" font-size="11" lengthAdjust="spacing" textLength="21.6992" x="1492.6465" y="467.96">N&#227;o</text><rect fill="#F1F1F1" height="33.9688" rx="12.5" ry="12.5" style="stroke:#181818;stroke-width:0.5;" width="219.5762" x="1126.0146" y="492.5542"/><text fill="#000000" font-family="sans-serif" font-size="12" lengthAdjust="spacing" textLength="199.5762" x="1136.0146" y="513.6929">Debitar valor da conta de origem</text><rect fill="#F1F1F1" height="33.9688" rx="12.5" ry="12.5" style="stroke:#181818;stroke-width:0.5;" width="225.5762" x="1123.0146" y="561.5229"/><text fill="#000000" font-family="sans-serif" font-size="12" lengthAdjust="spacing" textLength="205.5762" x="1133.0146" y="582.6616">Creditar valor na conta de destino</text><rect fill="#F1F1F1" height="33.9688" rx="12.5" ry="12.5" style="stroke:#181818;stroke-width:0.5;" width="415.7656" x="1027.9199" y="630.4917"/><text fill="#000000" font-family="sans-serif" font-size="12" lengthAdjust="spacing" textLength="395.7656" x="1037.9199" y="651.6304">Salvar Transacao e atualizar ambas as Contas no banco de dados</text><rect fill="#F1F1F1" height="33.9688" rx="12.5" ry="12.5" style="stroke:#181818;stroke-width:0.5;" width="309.4531" x="1081.0762" y="698.8628"/><text fill="#000000" font-family="sans-serif" font-size="12" lengthAdjust="spacing" textLength="289.4531" x="1091.0762" y="720.0015">Retornar "Transfer&#234;ncia realizada com sucesso"</text><rect fill="#F1F1F1" height="33.9688" rx="12.5" ry="12.5" style="stroke:#181818;stroke-width:0.5;" width="336.8457" x="1463.6855" y="492.5542"/><text fill="#000000" font-family="sans-serif" font-size="12" lengthAdjust="spacing" textLength="316.8457" x="1473.6855" y="513.6929">Retornar erro "Saldo insuficiente para transfer&#234;ncia"</text><polygon fill="#F1F1F1" points="1433.9556,738.8315,1445.9556,750.8315,1433.9556,762.8315,1421.9556,750.8315,1433.9556,738.8315" style="stroke:#181818;stroke-width:0.5;"/><rect fill="#F1F1F1" height="33.9688" rx="12.5" ry="12.5" style="stroke:#181818;stroke-width:0.5;" width="268.9531" x="1830.5313" y="389.5854"/><text fill="#000000" font-family="sans-serif" font-size="12" lengthAdjust="spacing" textLength="248.9531" x="1840.5313" y="410.7241">Retornar erro "Conta de destino inv&#225;lida"</text><polygon fill="#F1F1F1" points="1699.4817,768.8315,1711.4817,780.8315,1699.4817,792.8315,1687.4817,780.8315,1699.4817,768.8315" style="stroke:#181818;stroke-width:0.5;"/><rect fill="#F1F1F1" height="33.9688" rx="12.5" ry="12.5" style="stroke:#181818;stroke-width:0.5;" width="310.0918" x="2123.1216" y="570.5229"/><text fill="#000000" font-family="sans-serif" font-size="12" lengthAdjust="spacing" textLength="290.0918" x="2133.1216" y="591.6616">Retornar erro "Tipo de transa&#231;&#227;o desconhecido"</text><rect fill="#F1F1F1" height="33.9688" rx="12.5" ry="12.5" style="stroke:#181818;stroke-width:0.5;" width="317.6035" x="2443.2134" y="191.9375"/><text fill="#000000" font-family="sans-serif" font-size="12" lengthAdjust="spacing" textLength="297.6035" x="2453.2134" y="213.0762">Retornar erro "Dados da transa&#231;&#227;o s&#227;o inv&#225;lidos"</text><polygon fill="#F1F1F1" points="1910.7583,905.605,1922.7583,917.605,1910.7583,929.605,1898.7583,917.605,1910.7583,905.605" style="stroke:#181818;stroke-width:0.5;"/><ellipse cx="1910.7583" cy="960.605" fill="none" rx="11" ry="11" style="stroke:#222222;stroke-width:1;"/><ellipse cx="1910.7583" cy="960.605" fill="#222222" rx="6" ry="6" style="stroke:#222222;stroke-width:1;"/><line style="stroke:#181818;stroke-width:1;" x1="1910.7583" x2="1910.7583" y1="30" y2="50"/><polygon fill="#181818" points="1906.7583,40,1910.7583,50,1914.7583,40,1910.7583,44" style="stroke:#181818;stroke-width:1;"/><line style="stroke:#181818;stroke-width:1;" x1="1910.7583" x2="1910.7583" y1="83.9688" y2="103.9688"/><polygon fill="#181818" points="1906.7583,93.9688,1910.7583,103.9688,1914.7583,93.9688,1910.7583,97.9688" style="stroke:#181818;stroke-width:1;"/><line style="stroke:#181818;stroke-width:1;" x1="206.4551" x2="206.4551" y1="423.5542" y2="458.5542"/><polygon fill="#181818" points="202.4551,448.5542,206.4551,458.5542,210.4551,448.5542,206.4551,452.5542" style="stroke:#181818;stroke-width:1;"/><line style="stroke:#181818;stroke-width:1;" x1="206.4551" x2="206.4551" y1="609.894" y2="644.894"/><polygon fill="#181818" points="202.4551,634.894,206.4551,644.894,210.4551,634.894,206.4551,638.894" style="stroke:#181818;stroke-width:1;"/><line style="stroke:#181818;stroke-width:1;" x1="206.4551" x2="206.4551" y1="551.5229" y2="575.9253"/><polygon fill="#181818" points="202.4551,565.9253,206.4551,575.9253,210.4551,565.9253,206.4551,569.9253" style="stroke:#181818;stroke-width:1;"/><line style="stroke:#181818;stroke-width:1;" x1="282.3496" x2="332.3574" y1="539.5229" y2="539.5229"/><polygon fill="#181818" points="328.3574,617.394,332.3574,627.394,336.3574,617.394,332.3574,621.394" style="stroke:#181818;stroke-width:1;"/><line style="stroke:#181818;stroke-width:1;" x1="332.3574" x2="332.3574" y1="539.5229" y2="714.6675"/><line style="stroke:#181818;stroke-width:1;" x1="332.3574" x2="218.4551" y1="714.6675" y2="714.6675"/><polygon fill="#181818" points="228.4551,710.6675,218.4551,714.6675,228.4551,718.6675,224.4551,714.6675" style="stroke:#181818;stroke-width:1;"/><line style="stroke:#181818;stroke-width:1;" x1="206.4551" x2="206.4551" y1="678.8628" y2="702.6675"/><polygon fill="#181818" points="202.4551,692.6675,206.4551,702.6675,210.4551,692.6675,206.4551,696.6675" style="stroke:#181818;stroke-width:1;"/><line style="stroke:#181818;stroke-width:1;" x1="206.4551" x2="206.4551" y1="492.5229" y2="527.5229"/><polygon fill="#181818" points="202.4551,517.5229,206.4551,527.5229,210.4551,517.5229,206.4551,521.5229" style="stroke:#181818;stroke-width:1;"/><line style="stroke:#181818;stroke-width:1;" x1="206.4551" x2="206.4551" y1="726.6675" y2="761.6675"/><polygon fill="#181818" points="202.4551,751.6675,206.4551,761.6675,210.4551,751.6675,206.4551,755.6675" style="stroke:#181818;stroke-width:1;"/><line style="stroke:#181818;stroke-width:1;" x1="206.4551" x2="206.4551" y1="795.6362" y2="815.6362"/><polygon fill="#181818" points="202.4551,805.6362,206.4551,815.6362,210.4551,805.6362,206.4551,809.6362" style="stroke:#181818;stroke-width:1;"/><line style="stroke:#181818;stroke-width:1;" x1="311.0654" x2="206.4551" y1="367.5854" y2="367.5854"/><line style="stroke:#181818;stroke-width:1;" x1="206.4551" x2="206.4551" y1="367.5854" y2="389.5854"/><polygon fill="#181818" points="202.4551,379.5854,206.4551,389.5854,210.4551,379.5854,206.4551,383.5854" style="stroke:#181818;stroke-width:1;"/><line style="stroke:#181818;stroke-width:1;" x1="428.4473" x2="533.0576" y1="367.5854" y2="367.5854"/><line style="stroke:#181818;stroke-width:1;" x1="533.0576" x2="533.0576" y1="367.5854" y2="389.5854"/><polygon fill="#181818" points="529.0576,379.5854,533.0576,389.5854,537.0576,379.5854,533.0576,383.5854" style="stroke:#181818;stroke-width:1;"/><line style="stroke:#181818;stroke-width:1;" x1="206.4551" x2="206.4551" y1="849.605" y2="867.605"/><line style="stroke:#181818;stroke-width:1;" x1="206.4551" x2="357.7563" y1="867.605" y2="867.605"/><polygon fill="#181818" points="347.7563,863.605,357.7563,867.605,347.7563,871.605,351.7563,867.605" style="stroke:#181818;stroke-width:1;"/><line style="stroke:#181818;stroke-width:1;" x1="533.0576" x2="533.0576" y1="423.5542" y2="867.605"/><line style="stroke:#181818;stroke-width:1;" x1="533.0576" x2="381.7563" y1="867.605" y2="867.605"/><polygon fill="#181818" points="391.7563,863.605,381.7563,867.605,391.7563,871.605,387.7563,867.605" style="stroke:#181818;stroke-width:1;"/><line style="stroke:#181818;stroke-width:1;" x1="369.7563" x2="369.7563" y1="335.5854" y2="355.5854"/><polygon fill="#181818" points="365.7563,345.5854,369.7563,355.5854,373.7563,345.5854,369.7563,349.5854" style="stroke:#181818;stroke-width:1;"/><line style="stroke:#181818;stroke-width:1;" x1="828.2119" x2="828.2119" y1="335.5854" y2="355.5854"/><polygon fill="#181818" points="824.2119,345.5854,828.2119,355.5854,832.2119,345.5854,828.2119,349.5854" style="stroke:#181818;stroke-width:1;"/><line style="stroke:#181818;stroke-width:1;" x1="828.2119" x2="828.2119" y1="389.5542" y2="424.5542"/><polygon fill="#181818" points="824.2119,414.5542,828.2119,424.5542,832.2119,414.5542,828.2119,418.5542" style="stroke:#181818;stroke-width:1;"/><line style="stroke:#181818;stroke-width:1;" x1="1235.8027" x2="1235.8027" y1="526.5229" y2="561.5229"/><polygon fill="#181818" points="1231.8027,551.5229,1235.8027,561.5229,1239.8027,551.5229,1235.8027,555.5229" style="stroke:#181818;stroke-width:1;"/><line style="stroke:#181818;stroke-width:1;" x1="1235.8027" x2="1235.8027" y1="595.4917" y2="630.4917"/><polygon fill="#181818" points="1231.8027,620.4917,1235.8027,630.4917,1239.8027,620.4917,1235.8027,624.4917" style="stroke:#181818;stroke-width:1;"/><line style="stroke:#181818;stroke-width:1;" x1="1235.8027" x2="1235.8027" y1="664.4604" y2="698.8628"/><polygon fill="#181818" points="1231.8027,688.8628,1235.8027,698.8628,1239.8027,688.8628,1235.8027,692.8628" style="stroke:#181818;stroke-width:1;"/><line style="stroke:#181818;stroke-width:1;" x1="1375.2646" x2="1235.8027" y1="470.5542" y2="470.5542"/><line style="stroke:#181818;stroke-width:1;" x1="1235.8027" x2="1235.8027" y1="470.5542" y2="492.5542"/><polygon fill="#181818" points="1231.8027,482.5542,1235.8027,492.5542,1239.8027,482.5542,1235.8027,486.5542" style="stroke:#181818;stroke-width:1;"/><line style="stroke:#181818;stroke-width:1;" x1="1492.6465" x2="1632.1084" y1="470.5542" y2="470.5542"/><line style="stroke:#181818;stroke-width:1;" x1="1632.1084" x2="1632.1084" y1="470.5542" y2="492.5542"/><polygon fill="#181818" points="1628.1084,482.5542,1632.1084,492.5542,1636.1084,482.5542,1632.1084,486.5542" style="stroke:#181818;stroke-width:1;"/><line style="stroke:#181818;stroke-width:1;" x1="1235.8027" x2="1235.8027" y1="732.8315" y2="750.8315"/><line style="stroke:#181818;stroke-width:1;" x1="1235.8027" x2="1421.9556" y1="750.8315" y2="750.8315"/><polygon fill="#181818" points="1411.9556,746.8315,1421.9556,750.8315,1411.9556,754.8315,1415.9556,750.8315" style="stroke:#181818;stroke-width:1;"/><line style="stroke:#181818;stroke-width:1;" x1="1632.1084" x2="1632.1084" y1="526.5229" y2="750.8315"/><line style="stroke:#181818;stroke-width:1;" x1="1632.1084" x2="1445.9556" y1="750.8315" y2="750.8315"/><polygon fill="#181818" points="1455.9556,746.8315,1445.9556,750.8315,1455.9556,754.8315,1451.9556,750.8315" style="stroke:#181818;stroke-width:1;"/><line style="stroke:#181818;stroke-width:1;" x1="1433.9556" x2="1433.9556" y1="423.5542" y2="458.5542"/><polygon fill="#181818" points="1429.9556,448.5542,1433.9556,458.5542,1437.9556,448.5542,1433.9556,452.5542" style="stroke:#181818;stroke-width:1;"/><line style="stroke:#181818;stroke-width:1;" x1="1619.4058" x2="1433.9556" y1="367.5854" y2="367.5854"/><line style="stroke:#181818;stroke-width:1;" x1="1433.9556" x2="1433.9556" y1="367.5854" y2="389.5854"/><polygon fill="#181818" points="1429.9556,379.5854,1433.9556,389.5854,1437.9556,379.5854,1433.9556,383.5854" style="stroke:#181818;stroke-width:1;"/><line style="stroke:#181818;stroke-width:1;" x1="1779.5576" x2="1965.0078" y1="367.5854" y2="367.5854"/><line style="stroke:#181818;stroke-width:1;" x1="1965.0078" x2="1965.0078" y1="367.5854" y2="389.5854"/><polygon fill="#181818" points="1961.0078,379.5854,1965.0078,389.5854,1969.0078,379.5854,1965.0078,383.5854" style="stroke:#181818;stroke-width:1;"/><line style="stroke:#181818;stroke-width:1;" x1="1433.9556" x2="1433.9556" y1="762.8315" y2="780.8315"/><line style="stroke:#181818;stroke-width:1;" x1="1433.9556" x2="1687.4817" y1="780.8315" y2="780.8315"/><polygon fill="#181818" points="1677.4817,776.8315,1687.4817,780.8315,1677.4817,784.8315,1681.4817,780.8315" style="stroke:#181818;stroke-width:1;"/><line style="stroke:#181818;stroke-width:1;" x1="1965.0078" x2="1965.0078" y1="423.5542" y2="780.8315"/><line style="stroke:#181818;stroke-width:1;" x1="1965.0078" x2="1711.4817" y1="780.8315" y2="780.8315"/><polygon fill="#181818" points="1721.4817,776.8315,1711.4817,780.8315,1721.4817,784.8315,1717.4817,780.8315" style="stroke:#181818;stroke-width:1;"/><line style="stroke:#181818;stroke-width:1;" x1="1699.4817" x2="1699.4817" y1="335.5854" y2="355.5854"/><polygon fill="#181818" points="1695.4817,345.5854,1699.4817,355.5854,1703.4817,345.5854,1699.4817,349.5854" style="stroke:#181818;stroke-width:1;"/><line style="stroke:#181818;stroke-width:1;" x1="369.7563" x2="369.7563" y1="269.9063" y2="301.6167"/><polygon fill="#181818" points="365.7563,291.6167,369.7563,301.6167,373.7563,291.6167,369.7563,295.6167" style="stroke:#181818;stroke-width:1;"/><line style="stroke:#181818;stroke-width:1;" x1="369.7563" x2="369.7563" y1="879.605" y2="899.605"/><polygon fill="#181818" points="365.7563,889.605,369.7563,899.605,373.7563,889.605,369.7563,893.605" style="stroke:#181818;stroke-width:1;"/><line style="stroke:#181818;stroke-width:1;" x1="828.2119" x2="828.2119" y1="269.9063" y2="301.6167"/><polygon fill="#181818" points="824.2119,291.6167,828.2119,301.6167,832.2119,291.6167,828.2119,295.6167" style="stroke:#181818;stroke-width:1;"/><line style="stroke:#181818;stroke-width:1;" x1="828.2119" x2="828.2119" y1="458.5229" y2="899.605"/><polygon fill="#181818" points="824.2119,889.605,828.2119,899.605,832.2119,889.605,828.2119,893.605" style="stroke:#181818;stroke-width:1;"/><line style="stroke:#181818;stroke-width:1;" x1="1699.4817" x2="1699.4817" y1="269.9063" y2="301.6167"/><polygon fill="#181818" points="1695.4817,291.6167,1699.4817,301.6167,1703.4817,291.6167,1699.4817,295.6167" style="stroke:#181818;stroke-width:1;"/><line style="stroke:#181818;stroke-width:1;" x1="1699.4817" x2="1699.4817" y1="792.8315" y2="899.605"/><polygon fill="#181818" points="1695.4817,889.605,1699.4817,899.605,1703.4817,889.605,1699.4817,893.605" style="stroke:#181818;stroke-width:1;"/><line style="stroke:#181818;stroke-width:1;" x1="467.9946" x2="731.8643" y1="257.9063" y2="257.9063"/><polygon fill="#181818" points="721.8643,253.9063,731.8643,257.9063,721.8643,261.9063,725.8643,257.9063" style="stroke:#181818;stroke-width:1;"/><line style="stroke:#181818;stroke-width:1;" x1="924.5596" x2="1580.6667" y1="257.9063" y2="257.9063"/><polygon fill="#181818" points="1570.6667,253.9063,1580.6667,257.9063,1570.6667,261.9063,1574.6667,257.9063" style="stroke:#181818;stroke-width:1;"/><line style="stroke:#181818;stroke-width:1;" x1="1203.1387" x2="1203.1387" y1="225.9063" y2="230.9063"/><line style="stroke:#181818;stroke-width:1;" x1="1203.1387" x2="369.7563" y1="230.9063" y2="230.9063"/><line style="stroke:#181818;stroke-width:1;" x1="369.7563" x2="369.7563" y1="230.9063" y2="245.9063"/><polygon fill="#181818" points="365.7563,235.9063,369.7563,245.9063,373.7563,235.9063,369.7563,239.9063" style="stroke:#181818;stroke-width:1;"/><line style="stroke:#181818;stroke-width:1;" x1="1818.2966" x2="2278.1675" y1="257.9063" y2="257.9063"/><line style="stroke:#181818;stroke-width:1;" x1="2278.1675" x2="2278.1675" y1="257.9063" y2="570.5229"/><polygon fill="#181818" points="2274.1675,560.5229,2278.1675,570.5229,2282.1675,560.5229,2278.1675,564.5229" style="stroke:#181818;stroke-width:1;"/><line style="stroke:#181818;stroke-width:1;" x1="2278.1675" x2="2278.1675" y1="604.4917" y2="899.605"/><polygon fill="#181818" points="2274.1675,889.605,2278.1675,899.605,2282.1675,889.605,2278.1675,893.605" style="stroke:#181818;stroke-width:1;"/><line style="stroke:#181818;stroke-width:1;" x1="369.7563" x2="2278.1675" y1="899.605" y2="899.605"/><line style="stroke:#181818;stroke-width:1;" x1="1814.1206" x2="1203.1387" y1="169.9375" y2="169.9375"/><line style="stroke:#181818;stroke-width:1;" x1="1203.1387" x2="1203.1387" y1="169.9375" y2="191.9375"/><polygon fill="#181818" points="1199.1387,181.9375,1203.1387,191.9375,1207.1387,181.9375,1203.1387,185.9375" style="stroke:#181818;stroke-width:1;"/><line style="stroke:#181818;stroke-width:1;" x1="2007.396" x2="2602.0151" y1="169.9375" y2="169.9375"/><line style="stroke:#181818;stroke-width:1;" x1="2602.0151" x2="2602.0151" y1="169.9375" y2="191.9375"/><polygon fill="#181818" points="2598.0151,181.9375,2602.0151,191.9375,2606.0151,181.9375,2602.0151,185.9375" style="stroke:#181818;stroke-width:1;"/><line style="stroke:#181818;stroke-width:1;" x1="1203.1387" x2="1203.1387" y1="899.605" y2="917.605"/><line style="stroke:#181818;stroke-width:1;" x1="1203.1387" x2="1898.7583" y1="917.605" y2="917.605"/><polygon fill="#181818" points="1888.7583,913.605,1898.7583,917.605,1888.7583,921.605,1892.7583,917.605" style="stroke:#181818;stroke-width:1;"/><line style="stroke:#181818;stroke-width:1;" x1="2602.0151" x2="2602.0151" y1="225.9063" y2="917.605"/><line style="stroke:#181818;stroke-width:1;" x1="2602.0151" x2="1922.7583" y1="917.605" y2="917.605"/><polygon fill="#181818" points="1932.7583,913.605,1922.7583,917.605,1932.7583,921.605,1928.7583,917.605" style="stroke:#181818;stroke-width:1;"/><line style="stroke:#181818;stroke-width:1;" x1="1910.7583" x2="1910.7583" y1="137.9375" y2="157.9375"/><polygon fill="#181818" points="1906.7583,147.9375,1910.7583,157.9375,1914.7583,147.9375,1910.7583,151.9375" style="stroke:#181818;stroke-width:1;"/><line style="stroke:#181818;stroke-width:1;" x1="1910.7583" x2="1910.7583" y1="929.605" y2="949.605"/><polygon fill="#181818" points="1906.7583,939.605,1910.7583,949.605,1914.7583,939.605,1910.7583,943.605" style="stroke:#181818;stroke-width:1;"/><!--SRC=[fLNRRjf047tdAqQy12JKz1caLiWu4Y-e0fJtnHudM-5TjBkWg7_Gl-ZbeKfV-md-iSwiD-1Bx50L1ObezvmpPtncR9qmRZ1TOu8xD70GflYHepFQGYh06Q6iA7uLFpMCd3pe2Pp4Nfi995evOIU0BdatdWsczs8lKs48b18KhKMLI24jZF1fMeBW0xmFG4WHj94Fc0C-IUkGA0OoWz72m-aK5MbJ1PQbJyLtOjVsunZS8oeORMG-7W1zff6HfAftdz5fsFfo4w512SWnB_xGAIdcuEqmjM6Zp4M2JC2YRApfjdY6cqMy-HHlvZTdsGNQ0rfHIdlvUpGoamcLO154ovoZhnNxL8CzqZL9hd1sHhFsfd7QjdZMMb3XZis6TZBEezEMyAoER5JPy4aeEdBy7_yqnNCgdQvJSAd5ruwhtJLxzRcrEk6dLDFz1fbmHyEb6uDEp5u1kYEbwal5ijDExDblYQrZKAKognkdxfu8Via5sJ-JHjopsxko2gLX9rJYVVcaD5gufdmPHQXX204bwO6IwqFA2RF7X5AlXnSSxgdRenMv7NTmeJ4QXcK4fBg4e4hYJGrU-FhYkewZUBcjn9M7cX9JYMjaCArbI7Hdw3P5wwIg1E6ATlRriTB3K5bt3wyol5tFLvkxU1slecN5jYylGrFyvXLqnR06ev1fIOyXqoRdWf0roiqZwZCRDO7XLi_i_jUU-FTTKTiNOLkyiIJg-IWngjsaLq2zgH3vJbYWFzyq-zQSDN9IVvGK5y_QEN5zKtVTvF4BC0JjB3liMpFN3dahCrA5rBI6_KAxvU0lmyMAG9FStoFkwe2G3ZsxHqm86IHA-cR5JRBm2gwFctyDlvIiBH66nMITFlm5]--></g></svg>