<svg xmlns="http://www.w3.org/2000/svg" xmlns:xlink="http://www.w3.org/1999/xlink" contentStyleType="text/css" data-diagram-type="DESCRIPTION" height="3699px" preserveAspectRatio="none" style="width:1699px;height:3699px;background:#FFFFFF;" version="1.1" viewBox="0 0 1699 3699" width="1699px" zoomAndPan="magnify"><defs/><g><!--cluster Sistema de Gerenciamento de Conta--><g class="cluster" data-entity="Sistema de Gerenciamento de Conta" data-source-line="18" data-uid="ent0013" id="cluster_Sistema de Gerenciamento de Conta"><rect fill="none" height="1401" rx="2.5" ry="2.5" style="stroke:#181818;stroke-width:1;" width="303.73" x="681.77" y="1674.18"/><text fill="#000000" font-family="sans-serif" font-size="14" font-weight="bold" lengthAdjust="spacing" textLength="288.2236" x="689.5232" y="1689.1751">Sistema de Gerenciamento de Conta</text></g><!--cluster Sistema de Gerenciamento Financeiro--><g class="cluster" data-entity="Sistema de Gerenciamento Financeiro" data-source-line="71" data-uid="ent0052" id="cluster_Sistema de Gerenciamento Financeiro"><rect fill="none" height="1513" rx="2.5" ry="2.5" style="stroke:#181818;stroke-width:1;" width="1025.43" x="668.46" y="137.18"/><text fill="#000000" font-family="sans-serif" font-size="14" font-weight="bold" lengthAdjust="spacing" textLength="300.6924" x="1030.8288" y="152.1751">Sistema de Gerenciamento Financeiro</text></g><!--cluster Design--><g class="cluster" data-entity="Design" data-source-line="130" data-uid="ent0100" id="cluster_Design"><rect fill="none" height="547" rx="2.5" ry="2.5" style="stroke:#181818;stroke-width:1;" width="348.85" x="658.71" y="3146.18"/><text fill="#000000" font-family="sans-serif" font-size="14" font-weight="bold" lengthAdjust="spacing" textLength="54.2363" x="806.0168" y="3161.1751">Design</text></g><!--entity UC0.1--><g class="entity" data-entity="UC0.1" data-source-line="20" data-uid="ent0014" id="entity_UC0.1"><ellipse cx="833.1408" cy="2794.1762" fill="#F1F1F1" rx="65.0308" ry="15.4062" style="stroke:#181818;stroke-width:0.5;"/><text fill="#000000" font-family="sans-serif" font-size="14" lengthAdjust="spacing" textLength="93.5498" x="786.3659" y="2798.8246">Efetuar Login</text></g><!--entity UC0.2--><g class="entity" data-entity="UC0.2" data-source-line="21" data-uid="ent0015" id="entity_UC0.2"><ellipse cx="833.1403" cy="3038.1761" fill="#F1F1F1" rx="93.8303" ry="21.1661" style="stroke:#181818;stroke-width:0.5;"/><text fill="#000000" font-family="sans-serif" font-size="14" lengthAdjust="spacing" textLength="162.3604" x="751.9601" y="3042.8245">Manter Dados de Login</text></g><!--entity UC0.3--><g class="entity" data-entity="UC0.3" data-source-line="22" data-uid="ent0016" id="entity_UC0.3"><ellipse cx="833.143" cy="2959.1826" fill="#F1F1F1" rx="103.963" ry="23.1926" style="stroke:#181818;stroke-width:0.5;"/><text fill="#000000" font-family="sans-serif" font-size="14" lengthAdjust="spacing" textLength="184.7549" x="740.7655" y="2963.831">Recuperar Acesso &#224; Conta</text></g><!--entity UC0.4--><g class="entity" data-entity="UC0.4" data-source-line="24" data-uid="ent0017" id="entity_UC0.4"><ellipse cx="833.1421" cy="2279.1804" fill="#F1F1F1" rx="111.6521" ry="24.7304" style="stroke:#181818;stroke-width:0.5;"/><text fill="#000000" font-family="sans-serif" font-size="14" lengthAdjust="spacing" textLength="201.4482" x="732.418" y="2283.8289">Visualizar Hist&#243;rico da Conta</text></g><!--entity UC0.5--><g class="entity" data-entity="UC0.5" data-source-line="25" data-uid="ent0018" id="entity_UC0.5"><ellipse cx="833.1362" cy="1732.1832" fill="#F1F1F1" rx="104.0662" ry="23.2132" style="stroke:#181818;stroke-width:0.5;"/><text fill="#000000" font-family="sans-serif" font-size="14" lengthAdjust="spacing" textLength="184.9805" x="740.6459" y="1736.8317">Associar Contas Banc&#225;rias</text></g><!--entity UC0.6--><g class="entity" data-entity="UC0.6" data-source-line="26" data-uid="ent0019" id="entity_UC0.6"><ellipse cx="833.1372" cy="1814.1814" fill="#F1F1F1" rx="108.1572" ry="24.0314" style="stroke:#181818;stroke-width:0.5;"/><text fill="#000000" font-family="sans-serif" font-size="14" lengthAdjust="spacing" textLength="193.8877" x="736.1933" y="1818.8299">Importar Dados Financeiros</text></g><!--entity UC0.7--><g class="entity" data-entity="UC0.7" data-source-line="27" data-uid="ent0020" id="entity_UC0.7"><ellipse cx="833.1398" cy="2205.1836" fill="#F1F1F1" rx="60.5698" ry="14.5236" style="stroke:#181818;stroke-width:0.5;"/><text fill="#000000" font-family="sans-serif" font-size="14" lengthAdjust="spacing" textLength="81.416" x="792.4318" y="2209.8321">Editar Perfil</text></g><!--entity UC0.8--><g class="entity" data-entity="UC0.8" data-source-line="28" data-uid="ent0021" id="entity_UC0.8"><ellipse cx="833.1433" cy="1898.1807" fill="#F1F1F1" rx="112.8033" ry="24.9607" style="stroke:#181818;stroke-width:0.5;"/><text fill="#000000" font-family="sans-serif" font-size="14" lengthAdjust="spacing" textLength="203.9297" x="731.1784" y="1902.8291">Compartilhar Acesso &#224; Conta</text></g><!--entity UC0.9--><g class="entity" data-entity="UC0.9" data-source-line="29" data-uid="ent0022" id="entity_UC0.9"><ellipse cx="833.1442" cy="1980.1788" fill="#F1F1F1" rx="99.2942" ry="22.2588" style="stroke:#181818;stroke-width:0.5;"/><text fill="#000000" font-family="sans-serif" font-size="14" lengthAdjust="spacing" textLength="174.501" x="745.8937" y="1984.8273">Solicitar Suporte T&#233;cnico</text></g><!--entity UC0.10--><g class="entity" data-entity="UC0.10" data-source-line="30" data-uid="ent0023" id="entity_UC0.10"><ellipse cx="833.1363" cy="2881.1813" fill="#F1F1F1" rx="88.4063" ry="20.0813" style="stroke:#181818;stroke-width:0.5;"/><text fill="#000000" font-family="sans-serif" font-size="14" lengthAdjust="spacing" textLength="150.124" x="758.0743" y="2885.8297">Entrar com Biometria</text></g><!--entity UC0.11--><g class="entity" data-entity="UC0.11" data-source-line="31" data-uid="ent0024" id="entity_UC0.11"><ellipse cx="833.1356" cy="2062.1771" fill="#F1F1F1" rx="112.0356" ry="24.8071" style="stroke:#181818;stroke-width:0.5;"/><text fill="#000000" font-family="sans-serif" font-size="14" lengthAdjust="spacing" textLength="202.2754" x="731.9979" y="2066.8256">Gerenciar Acesso Biom&#233;trico</text></g><!--entity UC0.12--><g class="entity" data-entity="UC0.12" data-source-line="32" data-uid="ent0025" id="entity_UC0.12"><ellipse cx="833.1417" cy="2139.1763" fill="#F1F1F1" rx="72.0317" ry="16.8063" style="stroke:#181818;stroke-width:0.5;"/><text fill="#000000" font-family="sans-serif" font-size="14" lengthAdjust="spacing" textLength="111.4531" x="777.4151" y="2143.8248">Redefinir Senha</text></g><!--entity UC0.13--><g class="entity" data-entity="UC0.13" data-source-line="34" data-uid="ent0026" id="entity_UC0.13"><ellipse cx="833.1439" cy="2460.1848" fill="#F1F1F1" rx="112.9239" ry="24.9848" style="stroke:#181818;stroke-width:0.5;"/><text fill="#000000" font-family="sans-serif" font-size="14" lengthAdjust="spacing" textLength="204.1895" x="731.0492" y="2464.8332">Gerenciar Tickets de Suporte</text></g><!--entity UC0.14--><g class="entity" data-entity="UC0.14" data-source-line="35" data-uid="ent0027" id="entity_UC0.14"><ellipse cx="833.1433" cy="2547.1827" fill="#F1F1F1" rx="122.3633" ry="26.8727" style="stroke:#181818;stroke-width:0.5;"/><text fill="#000000" font-family="sans-serif" font-size="14" lengthAdjust="spacing" textLength="224.3896" x="720.9485" y="2551.8311">Acessar Contato de Emerg&#234;ncia</text></g><!--entity UC0.15--><g class="entity" data-entity="UC0.15" data-source-line="36" data-uid="ent0028" id="entity_UC0.15"><ellipse cx="833.1351" cy="2633.181" fill="#F1F1F1" rx="110.1551" ry="24.431" style="stroke:#181818;stroke-width:0.5;"/><text fill="#000000" font-family="sans-serif" font-size="14" lengthAdjust="spacing" textLength="198.2148" x="734.0276" y="2637.8294">Visualizar Hist&#243;rico de Login</text></g><!--entity UC0.16--><g class="entity" data-entity="UC0.16" data-source-line="37" data-uid="ent0029" id="entity_UC0.16"><ellipse cx="833.1399" cy="2361.176" fill="#F1F1F1" rx="98.5299" ry="22.106" style="stroke:#181818;stroke-width:0.5;"/><text fill="#000000" font-family="sans-serif" font-size="14" lengthAdjust="spacing" textLength="172.8125" x="746.7337" y="2365.8244">Enviar Mensagem Direta</text></g><!--entity UC0.17--><g class="entity" data-entity="UC0.17" data-source-line="39" data-uid="ent0030" id="entity_UC0.17"><ellipse cx="833.1425" cy="2718.1785" fill="#F1F1F1" rx="114.5925" ry="25.3185" style="stroke:#181818;stroke-width:0.5;"/><text fill="#000000" font-family="sans-serif" font-size="14" lengthAdjust="spacing" textLength="207.7783" x="729.2533" y="2722.8269">Suspender Acesso de Usu&#225;rio</text></g><!--entity UC1.1--><g class="entity" data-entity="UC1.1" data-source-line="72" data-uid="ent0053" id="entity_UC1.1"><ellipse cx="833.142" cy="256.1764" fill="#F1F1F1" rx="71.982" ry="16.7964" style="stroke:#181818;stroke-width:0.5;"/><text fill="#000000" font-family="sans-serif" font-size="14" lengthAdjust="spacing" textLength="111.3301" x="777.477" y="260.8248">Visualizar conta</text></g><!--entity UC1.2--><g class="entity" data-entity="UC1.2" data-source-line="73" data-uid="ent0054" id="entity_UC1.2"><ellipse cx="1568.649" cy="196.1778" fill="#F1F1F1" rx="109.239" ry="24.2478" style="stroke:#181818;stroke-width:0.5;"/><text fill="#000000" font-family="sans-serif" font-size="14" lengthAdjust="spacing" textLength="196.2324" x="1470.5327" y="200.8262">Visualizar entradas e sa&#237;das</text></g><!--entity UC1.3--><g class="entity" data-entity="UC1.3" data-source-line="74" data-uid="ent0055" id="entity_UC1.3"><ellipse cx="833.1376" cy="335.1775" fill="#F1F1F1" rx="122.3376" ry="26.8675" style="stroke:#181818;stroke-width:0.5;"/><text fill="#000000" font-family="sans-serif" font-size="14" lengthAdjust="spacing" textLength="224.335" x="720.9701" y="339.826">Visualizar despesas em gr&#225;ficos</text></g><!--entity UC1.4--><g class="entity" data-entity="UC1.4" data-source-line="75" data-uid="ent0056" id="entity_UC1.4"><ellipse cx="833.1387" cy="422.1777" fill="#F1F1F1" rx="115.8887" ry="25.5777" style="stroke:#181818;stroke-width:0.5;"/><text fill="#000000" font-family="sans-serif" font-size="14" lengthAdjust="spacing" textLength="210.5605" x="727.8584" y="426.8262">Visualizar metas de economia</text></g><!--entity UC1.5--><g class="entity" data-entity="UC1.5" data-source-line="76" data-uid="ent0057" id="entity_UC1.5"><ellipse cx="833.1408" cy="499.1842" fill="#F1F1F1" rx="71.6708" ry="16.7342" style="stroke:#181818;stroke-width:0.5;"/><text fill="#000000" font-family="sans-serif" font-size="14" lengthAdjust="spacing" textLength="110.5576" x="777.8619" y="503.8326">Receber alertas</text></g><!--entity UC1.6--><g class="entity" data-entity="UC1.6" data-source-line="77" data-uid="ent0058" id="entity_UC1.6"><ellipse cx="833.1419" cy="1108.1784" fill="#F1F1F1" rx="80.1419" ry="18.4284" style="stroke:#181818;stroke-width:0.5;"/><text fill="#000000" font-family="sans-serif" font-size="14" lengthAdjust="spacing" textLength="131.0107" x="767.6366" y="1112.8268">Exportar relat&#243;rios</text></g><!--entity UC1.7--><g class="entity" data-entity="UC1.7" data-source-line="78" data-uid="ent0059" id="entity_UC1.7"><ellipse cx="833.1355" cy="578.1791" fill="#F1F1F1" rx="124.6955" ry="27.3391" style="stroke:#181818;stroke-width:0.5;"/><text fill="#000000" font-family="sans-serif" font-size="14" lengthAdjust="spacing" textLength="229.3457" x="718.4626" y="582.8275">Programar despesas recorrentes</text></g><!--entity UC1.8--><g class="entity" data-entity="UC1.8" data-source-line="79" data-uid="ent0060" id="entity_UC1.8"><ellipse cx="833.1354" cy="656.1831" fill="#F1F1F1" rx="66.5154" ry="15.7031" style="stroke:#181818;stroke-width:0.5;"/><text fill="#000000" font-family="sans-serif" font-size="14" lengthAdjust="spacing" textLength="97.4531" x="784.4088" y="660.8315">Manter metas</text></g><!--entity UC1.9--><g class="entity" data-entity="UC1.9" data-source-line="80" data-uid="ent0061" id="entity_UC1.9"><ellipse cx="833.1406" cy="738.1821" fill="#F1F1F1" rx="143.1106" ry="31.0221" style="stroke:#181818;stroke-width:0.5;"/><text fill="#000000" font-family="sans-serif" font-size="14" lengthAdjust="spacing" textLength="268.1123" x="699.0844" y="742.8306">Visualizar painel de resumo financeiro</text></g><!--entity UC1.10--><g class="entity" data-entity="UC1.10" data-source-line="81" data-uid="ent0062" id="entity_UC1.10"><ellipse cx="833.1394" cy="822.1819" fill="#F1F1F1" rx="79.5594" ry="18.3119" style="stroke:#181818;stroke-width:0.5;"/><text fill="#000000" font-family="sans-serif" font-size="14" lengthAdjust="spacing" textLength="129.6367" x="768.3211" y="826.8303">Marcar transa&#231;&#245;es</text></g><!--entity UC1.11--><g class="entity" data-entity="UC1.11" data-source-line="82" data-uid="ent0063" id="entity_UC1.11"><ellipse cx="833.1419" cy="894.1824" fill="#F1F1F1" rx="82.6619" ry="18.9324" style="stroke:#181818;stroke-width:0.5;"/><text fill="#000000" font-family="sans-serif" font-size="14" lengthAdjust="spacing" textLength="136.9102" x="764.6869" y="898.8308">Manter or&#231;amentos</text></g><!--entity UC1.13--><g class="entity" data-entity="UC1.13" data-source-line="84" data-uid="ent0064" id="entity_UC1.13"><ellipse cx="833.1442" cy="188.1768" fill="#F1F1F1" rx="69.7842" ry="16.3568" style="stroke:#181818;stroke-width:0.5;"/><text fill="#000000" font-family="sans-serif" font-size="14" lengthAdjust="spacing" textLength="105.834" x="780.2272" y="192.8253">Manter cart&#245;es</text></g><!--entity UC1.14--><g class="entity" data-entity="UC1.14" data-source-line="85" data-uid="ent0065" id="entity_UC1.14"><ellipse cx="833.1357" cy="965.1751" fill="#F1F1F1" rx="74.6757" ry="17.3351" style="stroke:#181818;stroke-width:0.5;"/><text fill="#000000" font-family="sans-serif" font-size="14" lengthAdjust="spacing" textLength="117.9404" x="774.1655" y="969.8236">Registrar faturas</text></g><!--entity UC1.15--><g class="entity" data-entity="UC1.15" data-source-line="86" data-uid="ent0066" id="entity_UC1.15"><ellipse cx="833.1403" cy="1036.1821" fill="#F1F1F1" rx="81.5603" ry="18.7121" style="stroke:#181818;stroke-width:0.5;"/><text fill="#000000" font-family="sans-serif" font-size="14" lengthAdjust="spacing" textLength="134.3398" x="765.9704" y="1040.8305">Manter assinaturas</text></g><!--entity UC1.16--><g class="entity" data-entity="UC1.16" data-source-line="87" data-uid="ent0067" id="entity_UC1.16"><ellipse cx="833.1371" cy="1182.1814" fill="#F1F1F1" rx="93.1071" ry="21.0214" style="stroke:#181818;stroke-width:0.5;"/><text fill="#000000" font-family="sans-serif" font-size="14" lengthAdjust="spacing" textLength="160.7402" x="752.7669" y="1186.8298">Transferir entre contas</text></g><!--entity UC1.17--><g class="entity" data-entity="UC1.17" data-source-line="88" data-uid="ent0068" id="entity_UC1.17"><ellipse cx="833.1409" cy="1264.1802" fill="#F1F1F1" rx="116.8009" ry="25.7602" style="stroke:#181818;stroke-width:0.5;"/><text fill="#000000" font-family="sans-serif" font-size="14" lengthAdjust="spacing" textLength="212.5156" x="726.8831" y="1268.8286">Visualizar proje&#231;&#245;es de gastos</text></g><!--entity UC1.18--><g class="entity" data-entity="UC1.18" data-source-line="89" data-uid="ent0069" id="entity_UC1.18"><ellipse cx="833.1413" cy="1351.1803" fill="#F1F1F1" rx="120.1013" ry="26.4203" style="stroke:#181818;stroke-width:0.5;"/><text fill="#000000" font-family="sans-serif" font-size="14" lengthAdjust="spacing" textLength="219.5703" x="723.3561" y="1355.8287">Visualizar calend&#225;rio financeiro</text></g><!--entity UC1.19--><g class="entity" data-entity="UC1.19" data-source-line="90" data-uid="ent0070" id="entity_UC1.19"><ellipse cx="833.1382" cy="1438.1776" fill="#F1F1F1" rx="116.9382" ry="25.7876" style="stroke:#181818;stroke-width:0.5;"/><text fill="#000000" font-family="sans-serif" font-size="14" lengthAdjust="spacing" textLength="212.8096" x="726.7334" y="1442.8261">Visualizar gr&#225;fico comparativo</text></g><!--entity UC1.20--><g class="entity" data-entity="UC1.20" data-source-line="91" data-uid="ent0071" id="entity_UC1.20"><ellipse cx="833.1433" cy="1531.1847" fill="#F1F1F1" rx="148.6733" ry="32.1347" style="stroke:#181818;stroke-width:0.5;"/><text fill="#000000" font-family="sans-serif" font-size="14" lengthAdjust="spacing" textLength="279.7197" x="693.2834" y="1535.8331">Visualizar, cadastrar e editar categorias</text></g><!--entity UC1.21--><g class="entity" data-entity="UC1.21" data-source-line="92" data-uid="ent0072" id="entity_UC1.21"><ellipse cx="833.1363" cy="1616.1753" fill="#F1F1F1" rx="78.5263" ry="18.1053" style="stroke:#181818;stroke-width:0.5;"/><text fill="#000000" font-family="sans-serif" font-size="14" lengthAdjust="spacing" textLength="127.1895" x="769.5415" y="1620.8237">Manter categorias</text></g><!--entity UC1.13.1--><g class="entity" data-entity="UC1.13.1" data-source-line="94" data-uid="ent0073" id="entity_UC1.13.1"><ellipse cx="1226.4943" cy="196.1849" fill="#F1F1F1" rx="109.9243" ry="24.3849" style="stroke:#181818;stroke-width:0.5;"/><text fill="#000000" font-family="sans-serif" font-size="14" lengthAdjust="spacing" textLength="197.7158" x="1127.6364" y="200.8333">Visualizar extrato detalhado</text></g><!--entity UC9.1--><g class="entity" data-entity="UC9.1" data-source-line="131" data-uid="ent0101" id="entity_UC9.1"><ellipse cx="833.1435" cy="3379.1847" fill="#F1F1F1" rx="82.9235" ry="18.9847" style="stroke:#181818;stroke-width:0.5;"/><text fill="#000000" font-family="sans-serif" font-size="14" lengthAdjust="spacing" textLength="137.5186" x="764.3842" y="3383.8331">Alterar entre temas</text></g><!--entity UC9.2--><g class="entity" data-entity="UC9.2" data-source-line="132" data-uid="ent0102" id="entity_UC9.2"><ellipse cx="833.139" cy="3464.1838" fill="#F1F1F1" rx="142.169" ry="30.8338" style="stroke:#181818;stroke-width:0.5;"/><text fill="#000000" font-family="sans-serif" font-size="14" lengthAdjust="spacing" textLength="266.1436" x="700.0673" y="3468.8322">Alterar entre modos de acessibilidade</text></g><!--entity UC9.3--><g class="entity" data-entity="UC9.3" data-source-line="133" data-uid="ent0103" id="entity_UC9.3"><ellipse cx="833.1385" cy="3558.1817" fill="#F1F1F1" rx="127.9085" ry="27.9817" style="stroke:#181818;stroke-width:0.5;"/><text fill="#000000" font-family="sans-serif" font-size="14" lengthAdjust="spacing" textLength="236.1543" x="715.0614" y="3562.8301">Personalizar ordem do dashboard</text></g><!--entity UC9.4--><g class="entity" data-entity="UC9.4" data-source-line="134" data-uid="ent0104" id="entity_UC9.4"><ellipse cx="833.1387" cy="3649.1837" fill="#F1F1F1" rx="129.9687" ry="28.3937" style="stroke:#181818;stroke-width:0.5;"/><text fill="#000000" font-family="sans-serif" font-size="14" lengthAdjust="spacing" textLength="240.5088" x="712.8843" y="3653.8322">Alternar visibilidade no dashboard</text></g><!--entity UC9.5--><g class="entity" data-entity="UC9.5" data-source-line="135" data-uid="ent0105" id="entity_UC9.5"><ellipse cx="833.139" cy="3291.1758" fill="#F1F1F1" rx="158.429" ry="34.0858" style="stroke:#181818;stroke-width:0.5;"/><text fill="#000000" font-family="sans-serif" font-size="14" lengthAdjust="spacing" textLength="299.9883" x="683.1448" y="3295.8242">Escolher formato de visualiza&#231;&#227;o de dados</text></g><!--entity UC9.6--><g class="entity" data-entity="UC9.6" data-source-line="136" data-uid="ent0106" id="entity_UC9.6"><ellipse cx="833.1376" cy="3201.1755" fill="#F1F1F1" rx="90.2776" ry="20.4555" style="stroke:#181818;stroke-width:0.5;"/><text fill="#000000" font-family="sans-serif" font-size="14" lengthAdjust="spacing" textLength="154.3691" x="755.9531" y="3205.824">Interagir com gr&#225;ficos</text></g><!--entity US--><g class="entity" data-entity="US" data-source-line="3" data-uid="ent0002" id="entity_US"><ellipse cx="77.6201" cy="3082.53" fill="#F1F1F1" rx="8" ry="8" style="stroke:#181818;stroke-width:0.5;"/><path d="M77.6201,3090.53 L77.6201,3117.53 M64.6201,3098.53 L90.6201,3098.53 M77.6201,3117.53 L64.6201,3132.53 M77.6201,3117.53 L90.6201,3132.53" fill="none" style="stroke:#181818;stroke-width:0.5;"/><text fill="#000000" font-family="sans-serif" font-size="14" lengthAdjust="spacing" textLength="143.2402" x="6" y="3147.0251">Usu&#225;rios do Sistema</text></g><!--entity UCM--><g class="entity" data-entity="UCM" data-source-line="4" data-uid="ent0003" id="entity_UCM"><ellipse cx="271.2234" cy="2289.53" fill="#F1F1F1" rx="8" ry="8" style="stroke:#181818;stroke-width:0.5;"/><path d="M271.2234,2297.53 L271.2234,2324.53 M258.2234,2305.53 L284.2234,2305.53 M271.2234,2324.53 L258.2234,2339.53 M271.2234,2324.53 L284.2234,2339.53" fill="none" style="stroke:#181818;stroke-width:0.5;"/><text fill="#000000" font-family="sans-serif" font-size="14" lengthAdjust="spacing" textLength="121.9668" x="210.24" y="2354.0251">Usu&#225;rios Comuns</text></g><!--entity UCL--><g class="entity" data-entity="UCL" data-source-line="5" data-uid="ent0004" id="entity_UCL"><ellipse cx="470.4589" cy="1160.53" fill="#F1F1F1" rx="8" ry="8" style="stroke:#181818;stroke-width:0.5;"/><path d="M470.4589,1168.53 L470.4589,1195.53 M457.4589,1176.53 L483.4589,1176.53 M470.4589,1195.53 L457.4589,1210.53 M470.4589,1195.53 L483.4589,1210.53" fill="none" style="stroke:#181818;stroke-width:0.5;"/><text fill="#000000" font-family="sans-serif" font-size="14" lengthAdjust="spacing" textLength="106.7979" x="417.06" y="1225.0251">Usu&#225;rio Cliente</text></g><!--entity AS--><g class="entity" data-entity="AS" data-source-line="6" data-uid="ent0005" id="entity_AS"><ellipse cx="470.4595" cy="2289.53" fill="#F1F1F1" rx="8" ry="8" style="stroke:#181818;stroke-width:0.5;"/><path d="M470.4595,2297.53 L470.4595,2324.53 M457.4595,2305.53 L483.4595,2305.53 M470.4595,2324.53 L457.4595,2339.53 M470.4595,2324.53 L483.4595,2339.53" fill="none" style="stroke:#181818;stroke-width:0.5;"/><text fill="#000000" font-family="sans-serif" font-size="14" lengthAdjust="spacing" textLength="154.499" x="393.21" y="2354.0251">Atendente de Suporte</text></g><!--entity ADM--><g class="entity" data-entity="ADM" data-source-line="7" data-uid="ent0006" id="entity_ADM"><ellipse cx="470.46" cy="2544.53" fill="#F1F1F1" rx="8" ry="8" style="stroke:#181818;stroke-width:0.5;"/><path d="M470.46,2552.53 L470.46,2579.53 M457.46,2560.53 L483.46,2560.53 M470.46,2579.53 L457.46,2594.53 M470.46,2579.53 L483.46,2594.53" fill="none" style="stroke:#181818;stroke-width:0.5;"/><text fill="#000000" font-family="sans-serif" font-size="14" lengthAdjust="spacing" textLength="99.0801" x="420.92" y="2609.0251">Administrador</text></g><!--entity EF--><g class="entity" data-entity="EF" data-source-line="8" data-uid="ent0007" id="entity_EF"><ellipse cx="1226.4921" cy="3062.53" fill="#F1F1F1" rx="8" ry="8" style="stroke:#181818;stroke-width:0.5;"/><path d="M1226.4921,3070.53 L1226.4921,3097.53 M1213.4921,3078.53 L1239.4921,3078.53 M1226.4921,3097.53 L1213.4921,3112.53 M1226.4921,3097.53 L1239.4921,3112.53" fill="none" style="stroke:#181818;stroke-width:0.5;"/><text fill="#000000" font-family="sans-serif" font-size="14" lengthAdjust="spacing" textLength="153.9043" x="1149.54" y="3127.0251">Entidades Financeiras</text></g><!--reverse link US to UCM--><g class="link" data-entity-1="US" data-entity-2="UCM" data-source-line="10" data-uid="lnk8" id="link_US_UCM"><path d="M89.6956,3056.1667 C105.5556,2976.5267 140.53,2805.24 179.24,2648.18 C205.3,2542.45 240.83,2419 258.8,2357.74" fill="none" id="US-backto-UCM" style="stroke:#181818;stroke-width:1;"/><polygon fill="none" points="86.18,3073.82,95.58,3057.3385,83.8111,3054.9948,86.18,3073.82" style="stroke:#181818;stroke-width:1;"/></g><!--reverse link US to ADM--><g class="link" data-entity-1="US" data-entity-2="ADM" data-source-line="11" data-uid="lnk9" id="link_US_ADM"><path d="M88.4794,3056.0939 C99.7894,2997.2839 124.01,2900.96 179.24,2820.18 C244.58,2724.63 356.46,2644.62 420.55,2603.65" fill="none" id="US-backto-ADM" style="stroke:#181818;stroke-width:1;"/><polygon fill="none" points="85.08,3073.77,94.3714,3057.227,82.5873,3054.9608,85.08,3073.77" style="stroke:#181818;stroke-width:1;"/></g><!--reverse link US to EF--><g class="link" data-entity-1="US" data-entity-2="EF" data-source-line="12" data-uid="lnk10" id="link_US_EF"><path d="M167.59,3112.18 C203.71,3112.18 230.31,3112.18 270.22,3112.18 C270.22,3112.18 270.22,3112.18 834.14,3112.18 C943.67,3112.18 1070.22,3104.27 1149.06,3098.4" fill="none" id="US-backto-EF" style="stroke:#181818;stroke-width:1;"/><polygon fill="none" points="149.59,3112.18,167.59,3118.18,167.59,3106.18,149.59,3112.18" style="stroke:#181818;stroke-width:1;"/></g><!--reverse link UCM to AS--><g class="link" data-entity-1="UCM" data-entity-2="AS" data-source-line="14" data-uid="lnk11" id="link_UCM_AS"><path d="M350.47,2319.18 C369.5,2319.18 372.79,2319.18 392.81,2319.18" fill="none" id="UCM-backto-AS" style="stroke:#181818;stroke-width:1;"/><polygon fill="none" points="332.47,2319.18,350.47,2325.18,350.47,2313.18,332.47,2319.18" style="stroke:#181818;stroke-width:1;"/></g><!--reverse link UCM to UCL--><g class="link" data-entity-1="UCM" data-entity-2="UCL" data-source-line="15" data-uid="lnk12" id="link_UCM_UCL"><path d="M282.0574,2262.9085 C312.3174,2089.6785 432.51,1401.69 462.74,1228.63" fill="none" id="UCM-backto-UCL" style="stroke:#181818;stroke-width:1;"/><polygon fill="none" points="278.96,2280.64,287.9679,2263.9409,276.1469,2261.876,278.96,2280.64" style="stroke:#181818;stroke-width:1;"/></g><!--link US to UC0.1--><g class="link" data-entity-1="US" data-entity-2="UC0.1" data-source-line="42" data-uid="lnk31" id="link_US_UC0.1"><path d="M120.7,3073.77 C145.43,3052.65 178.07,3027.16 210.24,3009.18 C409.44,2897.86 676.4,2829.36 784.11,2804.64" fill="none" id="US-UC0.1" style="stroke:#181818;stroke-width:1;"/></g><!--link US to UC0.2--><g class="link" data-entity-1="US" data-entity-2="UC0.2" data-source-line="43" data-uid="lnk32" id="link_US_UC0.2"><path d="M149.47,3092.18 C159.41,3089.87 169.54,3087.78 179.24,3086.18 C376.9,3053.65 611.86,3043.16 739.07,3039.78" fill="none" id="US-UC0.2" style="stroke:#181818;stroke-width:1;"/></g><!--link US to UC0.3--><g class="link" data-entity-1="US" data-entity-2="UC0.3" data-source-line="44" data-uid="lnk33" id="link_US_UC0.3"><path d="M144.97,3073.65 C165.28,3063.59 188.12,3053.96 210.24,3048.18 C391.6,3000.76 609.76,2976.9 733.56,2966.33" fill="none" id="US-UC0.3" style="stroke:#181818;stroke-width:1;"/></g><!--link UCL to UC0.4--><g class="link" data-entity-1="UCL" data-entity-2="UC0.4" data-source-line="46" data-uid="lnk34" id="link_UCL_UC0.4"><path d="M472.68,1228.75 C478.76,1408.46 508.13,2158 577.71,2233.18 C615.13,2273.62 675.16,2285.85 727.52,2287.63" fill="none" id="UCL-UC0.4" style="stroke:#181818;stroke-width:1;"/></g><!--link UCL to UC0.5--><g class="link" data-entity-1="UCL" data-entity-2="UC0.5" data-source-line="47" data-uid="lnk35" id="link_UCL_UC0.5"><path d="M476.46,1228.77 C489.58,1315.11 532.48,1526.06 650.71,1650.18 C680.86,1681.84 725.52,1702.24 762.98,1714.77" fill="none" id="UCL-UC0.5" style="stroke:#181818;stroke-width:1;"/></g><!--link UCL to UC0.6--><g class="link" data-entity-1="UCL" data-entity-2="UC0.6" data-source-line="48" data-uid="lnk36" id="link_UCL_UC0.6"><path d="M477.29,1228.79 C496.16,1348.09 559.72,1706.77 650.71,1773.18 C673.92,1790.12 702.92,1800.24 730.88,1806.23" fill="none" id="UCL-UC0.6" style="stroke:#181818;stroke-width:1;"/></g><!--link UCL to UC0.7--><g class="link" data-entity-1="UCL" data-entity-2="UC0.7" data-source-line="49" data-uid="lnk37" id="link_UCL_UC0.7"><path d="M472.64,1228.6 C478.42,1404.18 506.37,2124.64 577.71,2192.18 C635.84,2247.22 738.95,2230.93 794.39,2216.66" fill="none" id="UCL-UC0.7" style="stroke:#181818;stroke-width:1;"/></g><!--link UCL to UC0.8--><g class="link" data-entity-1="UCL" data-entity-2="UC0.8" data-source-line="50" data-uid="lnk38" id="link_UCL_UC0.8"><path d="M471.75,1228.54 C473.87,1324.58 488.17,1581.23 577.71,1770.18 C599.17,1815.49 607.89,1830.09 650.71,1856.18 C675.14,1871.07 704.36,1880.68 732.14,1886.89" fill="none" id="UCL-UC0.8" style="stroke:#181818;stroke-width:1;"/></g><!--link UCL to UC0.9--><g class="link" data-entity-1="UCL" data-entity-2="UC0.9" data-source-line="51" data-uid="lnk39" id="link_UCL_UC0.9"><path d="M474.71,1228.61 C485.71,1353.22 523.83,1744.5 577.71,1858.18 C598.6,1902.27 608.61,1915.5 650.71,1940.18 C677.98,1956.17 710.95,1965.77 741.28,1971.54" fill="none" id="UCL-UC0.9" style="stroke:#181818;stroke-width:1;"/></g><!--link UCL to UC0.11--><g class="link" data-entity-1="UCL" data-entity-2="UC0.11" data-source-line="52" data-uid="lnk40" id="link_UCL_UC0.11"><path d="M473.8,1228.77 C482.48,1363.86 515.54,1814.31 577.71,1943.18 C598.19,1985.65 609.78,1996.76 650.71,2020.18 C675.96,2034.63 705.88,2044.11 734.07,2050.33" fill="none" id="UCL-UC0.11" style="stroke:#181818;stroke-width:1;"/></g><!--link UCL to UC0.12--><g class="link" data-entity-1="UCL" data-entity-2="UC0.12" data-source-line="53" data-uid="lnk41" id="link_UCL_UC0.12"><path d="M472.64,1228.57 C478.37,1402.37 505.99,2109.79 577.71,2174.18 C599.2,2193.48 613.94,2176.82 642.71,2174.18 C655.94,2172.97 725.81,2159.76 776.86,2149.92" fill="none" id="UCL-UC0.12" style="stroke:#181818;stroke-width:1;"/></g><!--link AS to UC0.7--><g class="link" data-entity-1="AS" data-entity-2="UC0.7" data-source-line="55" data-uid="lnk42" id="link_AS_UC0.7"><path d="M548,2310.08 C581.02,2302.5 617.71,2288.62 642.71,2263.18 C651.18,2254.56 641.64,2245.18 650.71,2237.18 C684.39,2207.43 735.75,2200.7 775.24,2200.68" fill="none" id="AS-UC0.7" style="stroke:#181818;stroke-width:1;"/></g><!--link AS to UC0.13--><g class="link" data-entity-1="AS" data-entity-2="UC0.13" data-source-line="56" data-uid="lnk43" id="link_AS_UC0.13"><path d="M547.83,2356.46 C579.33,2371.22 616.43,2387.82 650.71,2401.18 C687.58,2415.56 729.57,2429.37 763.85,2440.01" fill="none" id="AS-UC0.13" style="stroke:#181818;stroke-width:1;"/></g><!--link AS to UC0.14--><g class="link" data-entity-1="AS" data-entity-2="UC0.14" data-source-line="57" data-uid="lnk44" id="link_AS_UC0.14"><path d="M498.58,2357.54 C530.28,2399.47 586.62,2465.53 650.71,2502.18 C674.93,2516.03 703.36,2525.66 730.43,2532.33" fill="none" id="AS-UC0.14" style="stroke:#181818;stroke-width:1;"/></g><!--link AS to UC0.15--><g class="link" data-entity-1="AS" data-entity-2="UC0.15" data-source-line="58" data-uid="lnk45" id="link_AS_UC0.15"><path d="M484.63,2357.66 C507.71,2418.66 561.67,2536.24 650.71,2591.18 C675.47,2606.46 705.24,2616.19 733.45,2622.38" fill="none" id="AS-UC0.15" style="stroke:#181818;stroke-width:1;"/></g><!--link ADM to UC0.4--><g class="link" data-entity-1="ADM" data-entity-2="UC0.4" data-source-line="60" data-uid="lnk46" id="link_ADM_UC0.4"><path d="M487.76,2535.74 C513.69,2479.46 569.8,2375.46 650.71,2321.18 C674.33,2305.33 703.15,2295.41 730.81,2289.22" fill="none" id="ADM-UC0.4" style="stroke:#181818;stroke-width:1;"/></g><!--link ADM to UC0.17--><g class="link" data-entity-1="ADM" data-entity-2="UC0.17" data-source-line="61" data-uid="lnk47" id="link_ADM_UC0.17"><path d="M520.21,2606.61 C555.24,2628.67 604.3,2657.03 650.71,2675.18 C679.95,2686.62 713.08,2695.56 742.95,2702.26" fill="none" id="ADM-UC0.17" style="stroke:#181818;stroke-width:1;"/></g><!--link UC0.6 to EF--><g class="link" data-entity-1="UC0.6" data-entity-2="EF" data-source-line="63" data-uid="lnk48" id="link_UC0.6_EF"><path d="M940.3,1817.85 C968.2,1823.91 995.94,1835.36 1015.56,1856.18 C1184.53,2035.47 1218.82,2864.16 1224.49,3053.56" fill="none" id="UC0.6-EF" style="stroke:#181818;stroke-width:1;"/></g><!--link UC0.10 to UC0.1--><g class="link" data-entity-1="UC0.10" data-entity-2="UC0.1" data-source-line="65" data-uid="lnk49" id="link_UC0.10_UC0.1"><path d="M833.14,2861 C833.14,2845.44 833.14,2830.23 833.14,2815.91" fill="none" id="UC0.10-to-UC0.1" style="stroke:#181818;stroke-width:1;stroke-dasharray:7,7;"/><polygon fill="#181818" points="833.14,2809.91,829.14,2818.91,833.14,2814.91,837.14,2818.91,833.14,2809.91" style="stroke:#181818;stroke-width:1;"/><text fill="#000000" font-family="sans-serif" font-size="13" lengthAdjust="spacing" textLength="61.1851" x="791.14" y="2839.9069">&#171;extend&#187;</text></g><!--link UC0.13 to UC0.16--><g class="link" data-entity-1="UC0.13" data-entity-2="UC0.16" data-source-line="66" data-uid="lnk50" id="link_UC0.13_UC0.16"><path d="M833.14,2434.94 C833.14,2419.13 833.14,2404.93 833.14,2389.67" fill="none" id="UC0.13-to-UC0.16" style="stroke:#181818;stroke-width:1;stroke-dasharray:7,7;"/><polygon fill="#181818" points="833.14,2383.67,829.14,2392.67,833.14,2388.67,837.14,2392.67,833.14,2383.67" style="stroke:#181818;stroke-width:1;"/><text fill="#000000" font-family="sans-serif" font-size="13" lengthAdjust="spacing" textLength="63.0068" x="790.14" y="2413.8069">&#171;include&#187;</text></g><!--link UC0.3 to UC0.12--><g class="link" data-entity-1="UC0.3" data-entity-2="UC0.12" data-source-line="68" data-uid="lnk51" id="link_UC0.3_UC0.12"><path d="M729.11,2959.2 C699.56,2953.79 670.17,2942.21 650.71,2919.18 C595.9,2854.3 557.12,2217.95 614.86,2155.68 C657.24,2109.98 729.021,2114.8609 779.371,2125.1309" fill="none" id="UC0.3-to-UC0.12" style="stroke:#181818;stroke-width:1;stroke-dasharray:7,7;"/><polygon fill="#181818" points="785.25,2126.33,777.231,2120.612,780.3509,2125.3307,775.6321,2128.4506,785.25,2126.33" style="stroke:#181818;stroke-width:1;"/><text fill="#000000" font-family="sans-serif" font-size="13" lengthAdjust="spacing" textLength="63.0068" x="578.71" y="2168.7469">&#171;include&#187;</text></g><!--link UC1.13 to UC1.13.1--><!--link UC1.13.1 to UC1.13--><g class="link" data-entity-1="UC1.13.1" data-entity-2="UC1.13" data-source-line="100" data-uid="lnk75" id="link_UC1.13.1_UC1.13"><path d="M1116.63,193.95 C1048.13,192.55 967.8287,190.9129 908.7487,189.7029" fill="none" id="UC1.13.1-to-UC1.13" style="stroke:#181818;stroke-width:1;stroke-dasharray:7,7;"/><polygon fill="#181818" points="902.75,189.58,911.6662,193.7634,907.749,189.6824,911.83,185.7651,902.75,189.58" style="stroke:#181818;stroke-width:1;"/><text fill="#000000" font-family="sans-serif" font-size="13" lengthAdjust="spacing" textLength="61.1851" x="1024.56" y="188.2469">&#171;extend&#187;</text></g><!--link UC1.13.1 to UC1.2--><g class="link" data-entity-1="UC1.13.1" data-entity-2="UC1.2" data-source-line="101" data-uid="lnk76" id="link_UC1.13.1_UC1.2"><path d="M1336.52,196.18 C1375.68,196.18 1413.81,196.18 1452.94,196.18" fill="none" id="UC1.13.1-to-UC1.2" style="stroke:#181818;stroke-width:1;stroke-dasharray:7,7;"/><polygon fill="#181818" points="1458.94,196.18,1449.94,192.18,1453.94,196.18,1449.94,200.18,1458.94,196.18" style="stroke:#181818;stroke-width:1;"/><text fill="#000000" font-family="sans-serif" font-size="13" lengthAdjust="spacing" textLength="61.1851" x="1367.41" y="192.2469">&#171;extend&#187;</text></g><!--link UCL to UC1.1--><g class="link" data-entity-1="UCL" data-entity-2="UC1.1" data-source-line="103" data-uid="lnk77" id="link_UCL_UC1.1"><path d="M471.33,1151.72 C472.08,1036.32 482.56,684.25 577.71,413.18 C598.63,353.56 598.95,327.43 650.71,291.18 C682.63,268.82 725.12,259.8 760.95,256.49" fill="none" id="UCL-UC1.1" style="stroke:#181818;stroke-width:1;"/></g><!--link UCL to UC1.2--><g class="link" data-entity-1="UCL" data-entity-2="UC1.2" data-source-line="104" data-uid="lnk78" id="link_UCL_UC1.2"><path d="M473.18,1151.61 C480.48,996.88 511.63,421.48 577.71,253.18 C597.69,202.29 601.91,178.83 650.71,154.18 C944.08,6 1359.92,123.85 1510.46,175.25" fill="none" id="UCL-UC1.2" style="stroke:#181818;stroke-width:1;"/></g><!--link UCL to UC1.3--><g class="link" data-entity-1="UCL" data-entity-2="UC1.3" data-source-line="105" data-uid="lnk79" id="link_UCL_UC1.3"><path d="M471.72,1151.69 C473.61,1043.87 487.12,731.16 577.71,492.18 C598.9,436.27 601.96,413.8 650.71,379.18 C672.11,363.98 698.13,353.99 723.71,347.44" fill="none" id="UCL-UC1.3" style="stroke:#181818;stroke-width:1;"/></g><!--link UCL to UC1.4--><g class="link" data-entity-1="UCL" data-entity-2="UC1.4" data-source-line="106" data-uid="lnk80" id="link_UCL_UC1.4"><path d="M471.8,1151.7 C473.98,1050.86 488.29,772.3 577.71,563.18 C599.06,513.24 605.33,495.02 650.71,465.18 C673.97,449.89 702.07,440.01 729.15,433.65" fill="none" id="UCL-UC1.4" style="stroke:#181818;stroke-width:1;"/></g><!--link UCL to UC1.5--><g class="link" data-entity-1="UCL" data-entity-2="UC1.5" data-source-line="107" data-uid="lnk81" id="link_UCL_UC1.5"><path d="M473.47,1151.54 C479.41,1059.4 501.56,820.91 577.71,639.18 C599.81,586.42 602.75,564.36 650.71,533.18 C683.22,512.04 725.53,503.29 761.11,499.94" fill="none" id="UCL-UC1.5" style="stroke:#181818;stroke-width:1;"/></g><!--link UCL to UC1.6--><g class="link" data-entity-1="UCL" data-entity-2="UC1.6" data-source-line="108" data-uid="lnk82" id="link_UCL_UC1.6"><path d="M524.3,1154.48 C540.75,1145.01 559.39,1135.85 577.71,1130.18 C634.67,1112.55 702.01,1107.37 753.1,1106.43" fill="none" id="UCL-UC1.6" style="stroke:#181818;stroke-width:1;"/></g><!--link UCL to UC1.7--><g class="link" data-entity-1="UCL" data-entity-2="UC1.7" data-source-line="109" data-uid="lnk83" id="link_UCL_UC1.7"><path d="M472.93,1151.66 C477.64,1065.9 497.19,854.66 577.71,701.18 C599.76,659.13 609.76,647.22 650.71,623.18 C674.22,609.38 701.83,599.79 728.33,593.14" fill="none" id="UCL-UC1.7" style="stroke:#181818;stroke-width:1;"/></g><!--link UCL to UC1.8--><g class="link" data-entity-1="UCL" data-entity-2="UC1.8" data-source-line="110" data-uid="lnk84" id="link_UCL_UC1.8"><path d="M471.2,1151.69 C472.91,1053.6 492.81,794.57 650.71,689.18 C684.66,666.52 729.79,658.24 766.55,655.65" fill="none" id="UCL-UC1.8" style="stroke:#181818;stroke-width:1;"/></g><!--link UCL to UC1.9--><g class="link" data-entity-1="UCL" data-entity-2="UC1.9" data-source-line="111" data-uid="lnk85" id="link_UCL_UC1.9"><path d="M478.31,1151.77 C490.82,1088.4 521.38,959.5 577.71,864.18 C601.86,823.3 609.95,810.53 650.71,786.18 C671.68,773.65 695.94,764.34 719.76,757.44" fill="none" id="UCL-UC1.9" style="stroke:#181818;stroke-width:1;"/></g><!--link UCL to UC1.10--><g class="link" data-entity-1="UCL" data-entity-2="UC1.10" data-source-line="112" data-uid="lnk86" id="link_UCL_UC1.10"><path d="M478.55,1151.61 C494.39,1078.26 540.3,920.44 650.71,858.18 C682.45,840.28 721.71,831.17 755.58,826.58" fill="none" id="UCL-UC1.10" style="stroke:#181818;stroke-width:1;"/></g><!--link UCL to UC1.11--><g class="link" data-entity-1="UCL" data-entity-2="UC1.11" data-source-line="113" data-uid="lnk87" id="link_UCL_UC1.11"><path d="M484.64,1151.67 C507.58,1091.51 561.16,977.22 650.71,930.18 C682.26,913.6 720.56,904.63 753.83,899.79" fill="none" id="UCL-UC1.11" style="stroke:#181818;stroke-width:1;"/></g><!--link UCL to UC1.13--><g class="link" data-entity-1="UCL" data-entity-2="UC1.13" data-source-line="114" data-uid="lnk88" id="link_UCL_UC1.13"><path d="M473.82,1151.65 C483.15,1005.33 519.82,484.61 577.71,330.18 C598.04,275.93 602.27,253.97 650.71,222.18 C683.79,200.46 727.18,191.79 763.23,188.62" fill="none" id="UCL-UC1.13" style="stroke:#181818;stroke-width:1;"/></g><!--link UCL to UC1.14--><g class="link" data-entity-1="UCL" data-entity-2="UC1.14" data-source-line="115" data-uid="lnk89" id="link_UCL_UC1.14"><path d="M494.58,1151.56 C524.27,1106.04 580.46,1032.48 650.71,1000.18 C685.53,984.17 727.38,975.48 762.1,970.76" fill="none" id="UCL-UC1.14" style="stroke:#181818;stroke-width:1;"/></g><!--link UCL to UC1.15--><g class="link" data-entity-1="UCL" data-entity-2="UC1.15" data-source-line="116" data-uid="lnk90" id="link_UCL_UC1.15"><path d="M508,1151.8 C527.31,1133.27 552.24,1111.91 577.71,1097.18 C632.65,1065.39 703.43,1050.13 756.38,1042.83" fill="none" id="UCL-UC1.15" style="stroke:#181818;stroke-width:1;"/></g><!--link UCL to UC1.16--><g class="link" data-entity-1="UCL" data-entity-2="UC1.16" data-source-line="117" data-uid="lnk91" id="link_UCL_UC1.16"><path d="M524.29,1189.01 C580.84,1187.75 671.63,1185.74 739.99,1184.22" fill="none" id="UCL-UC1.16" style="stroke:#181818;stroke-width:1;"/></g><!--link UCL to UC1.17--><g class="link" data-entity-1="UCL" data-entity-2="UC1.17" data-source-line="118" data-uid="lnk92" id="link_UCL_UC1.17"><path d="M524.29,1201.02 C582.6,1212.98 677.32,1232.42 746.31,1246.57" fill="none" id="UCL-UC1.17" style="stroke:#181818;stroke-width:1;"/></g><!--link UCL to UC1.18--><g class="link" data-entity-1="UCL" data-entity-2="UC1.18" data-source-line="119" data-uid="lnk93" id="link_UCL_UC1.18"><path d="M520.22,1228.59 C554.87,1254.18 603.46,1286.75 650.71,1307.18 C678.08,1319.01 709.2,1328.02 737.86,1334.71" fill="none" id="UCL-UC1.18" style="stroke:#181818;stroke-width:1;"/></g><!--link UCL to UC1.19--><g class="link" data-entity-1="UCL" data-entity-2="UC1.19" data-source-line="120" data-uid="lnk94" id="link_UCL_UC1.19"><path d="M503.64,1228.56 C524.29,1252.74 551.96,1284.35 577.71,1311.18 C605.35,1339.99 620.86,1339.76 642.71,1373.18 C648.4,1381.89 642.93,1388.26 650.71,1395.18 C670.41,1412.72 695.96,1423.45 721.63,1429.93" fill="none" id="UCL-UC1.19" style="stroke:#181818;stroke-width:1;"/></g><!--link UCL to UC1.20--><g class="link" data-entity-1="UCL" data-entity-2="UC1.20" data-source-line="121" data-uid="lnk95" id="link_UCL_UC1.20"><path d="M491.29,1228.73 C511.57,1267.22 544.69,1327.61 577.71,1377.18 C603.88,1416.47 619.27,1420.2 642.71,1461.18 C647.46,1469.49 643.57,1474.8 650.71,1481.18 C667.02,1495.77 687.23,1506.15 708.17,1513.52" fill="none" id="UCL-UC1.20" style="stroke:#181818;stroke-width:1;"/></g><!--link AS to UC1.6--><g class="link" data-entity-1="AS" data-entity-2="UC1.6" data-source-line="123" data-uid="lnk96" id="link_AS_UC1.6"><path d="M471.52,2280.76 C472.67,2096.95 487.2,1309.33 650.71,1143.18 C677.37,1116.09 718.22,1106.58 754.42,1104.18" fill="none" id="AS-UC1.6" style="stroke:#181818;stroke-width:1;"/></g><!--link AS to UC1.20--><g class="link" data-entity-1="AS" data-entity-2="UC1.20" data-source-line="124" data-uid="lnk97" id="link_AS_UC1.20"><path d="M472.06,2280.88 C474.93,2148.02 490.9,1709.44 577.71,1605.18 C606.18,1570.98 649.48,1552.06 692.32,1541.75" fill="none" id="AS-UC1.20" style="stroke:#181818;stroke-width:1;"/></g><!--link AS to UC1.21--><g class="link" data-entity-1="AS" data-entity-2="UC1.21" data-source-line="125" data-uid="lnk98" id="link_AS_UC1.21"><path d="M471.76,2280.82 C473.62,2151.94 486.71,1737.63 577.71,1649.18 C627.69,1600.59 711.65,1599.08 769.36,1605.24" fill="none" id="AS-UC1.21" style="stroke:#181818;stroke-width:1;"/></g><!--link ADM to UC1.21--><g class="link" data-entity-1="ADM" data-entity-2="UC1.21" data-source-line="127" data-uid="lnk99" id="link_ADM_UC1.21"><path d="M489.28,2535.79 C506.84,2496.35 533.11,2432.74 547.71,2375.18 C623.06,2078.04 461.69,1934.52 650.71,1693.18 C679.4,1656.54 728.81,1637.1 768.83,1626.93" fill="none" id="ADM-UC1.21" style="stroke:#181818;stroke-width:1;"/></g><!--link US to UC9.1--><g class="link" data-entity-1="US" data-entity-2="UC9.1" data-source-line="139" data-uid="lnk107" id="link_US_UC9.1"><path d="M144.23,3150.66 C165,3162.13 188.28,3174.28 210.24,3184.18 C399.98,3269.71 450.18,3287.43 650.71,3343.18 C687.83,3353.5 730.02,3362.06 764.36,3368.23" fill="none" id="US-UC9.1" style="stroke:#181818;stroke-width:1;"/></g><!--link US to UC9.2--><g class="link" data-entity-1="US" data-entity-2="UC9.2" data-source-line="140" data-uid="lnk108" id="link_US_UC9.2"><path d="M109.04,3150.68 C133.78,3179.97 170.92,3219.62 210.24,3246.18 C371.89,3355.36 594.08,3415.81 724.46,3444.01" fill="none" id="US-UC9.2" style="stroke:#181818;stroke-width:1;"/></g><!--link US to UC9.3--><g class="link" data-entity-1="US" data-entity-2="UC9.3" data-source-line="141" data-uid="lnk109" id="link_US_UC9.3"><path d="M94.15,3150.43 C114.64,3196.73 154.71,3274.53 210.24,3323.18 C361.19,3455.43 593.97,3516.44 727.8,3541.97" fill="none" id="US-UC9.3" style="stroke:#181818;stroke-width:1;"/></g><!--link US to UC9.4--><g class="link" data-entity-1="US" data-entity-2="UC9.4" data-source-line="142" data-uid="lnk110" id="link_US_UC9.4"><path d="M86.13,3150.64 C100.22,3213.52 136.12,3339.05 210.24,3416.18 C346.76,3558.23 578.1,3614.46 716.86,3636.14" fill="none" id="US-UC9.4" style="stroke:#181818;stroke-width:1;"/></g><!--link US to UC9.5--><g class="link" data-entity-1="US" data-entity-2="UC9.5" data-source-line="143" data-uid="lnk111" id="link_US_UC9.5"><path d="M149.48,3130.71 C159.47,3133.25 169.6,3135.81 179.24,3138.18 C370,3185.17 592.96,3236.69 722.79,3266.35" fill="none" id="US-UC9.5" style="stroke:#181818;stroke-width:1;"/></g><!--link UCL to UC9.6--><g class="link" data-entity-1="UCL" data-entity-2="UC9.6" data-source-line="145" data-uid="lnk112" id="link_UCL_UC9.6"><path d="M474.18,1228.54 C492.83,1489.19 602.21,2992.27 650.71,3075.18 C681.49,3127.81 744.02,3163.67 786.99,3183.29" fill="none" id="UCL-UC9.6" style="stroke:#181818;stroke-width:1;"/></g><!--SRC=[ZLVDRXit4BxlKn2- -D88NlrQXM50iPIsW0q4aTrBqGEzIwtOxf8goJMCfdsN1Zq4AT1JqIVO5-kG-yCXBQNnmU3ipCUPuVogP3j3Z2IA5tj3SgvOPhWKIK8p8nKvUz1ryq5ngKakoPPhmofwHgWc3zkN8ZUogeLksJTtCP_Sb9m9mph-RSzV6IPooo0v8zlw85KdinfKhFAA2r2kQ2vLoriFzs-4uJdDcIPlkA0YOrpHreZDcoHvs9AhtrwzSWRrPmlkpqxcvgvZRFtPMfYSzpvRsxvXYecCqmgCbVR3ZHI69lR9g2XAHix-L_YCl4y8_Bb_jMOPrG3Rx9YfgIAtik2YUvwBKHeAtL5u8aNMy0JQtXSAZqFXTooh3qp1dQkCQIr9yqTlG0UOEC1BMxxdkgOb_nMWtu8tpJ-APs0_ZU3J4BK27U2iQgKqUGrni46dUa3CGiHtbGqqxHqQGYSzOXwzKiwj_5kcThmSX1QX4AJWWIh3o_rdVByCCLjPyipTtMKVkMy-PGBy7X3Bo1HXxDjciYAlkQoO0Kzzt2v2uJuJ1diifFba55QGfd40SxQ3d0URcDYZoySdukQrtFFiPsPqN4qEFOd2PWtgezQcwQPYgcZ-ibTvsFIBSYJEoNGMlzgJjU-E2KqBLf4rT1iKbNH-f3IsjJxOzZ0y7cZf6uf7BfBVNQMxihMLuyzZT9xOKh_jgIacPfYOOsA1YKjCB3410SJKE4bMMt-5FqC84375n0mmwpjl7YB0myHPHeQMPHEDZAvRDlcQN5snPzj9hwzRvcHWpXsNYwoiSmPin_ViSSp-JDFpPVf5RS-BzutlM0vbg3ZJkEqXEMQhBWSnHZHj_iw7vfB6xG-1O2uScBQWYXIg-R23LFMuoKaS53LrDSJ0F5bnR-3qHQjbZv2Vj6JGp_pLSV8_T_rEiPAwaa5cH9tkhPA5eXMs7bvRAcMdf4SjZWu8P_WWStdImGFbWfNMGyLqNKcoGy7gqCjOWye02L602cu-DlyYO-AkrraZLVEnJGOacYP7PU5k4zuvYP-wS4k08ZjgQeNSZ3jKToFL6foAHAF0t5jlTapnDi5Ocuv8Vdxw2PNyYRNlOD-ne3fmSt4wuo5PHDvkHKUUFJqTjJw5xUo1GKSDVqAuvIdSLw0IwiMz7QHqEqapQbWXqP26Eheu4PcNad4GSQ4-Wo8tJWo5GPmZ2oUZ3dTEta4XPB1hTkb1h3javn96jIhiv6Rwbvgft3KNzx5h4ErjPFJ3dkUmFVvuxU-tiw0xaz6ePyGjCX8OXtpVp6r7GiGO4nDCJ34nmyGS4mjCN69Y6IYz2AZ0XZJGcmQAqq1p6gXE0zrfe3mDj4CU39F9sk_Fm454YaPMIvwJDTEy47W-j5zUZ81LQToAsfQTdI1zUYtZAH2ALhBRWQdT2VWZBzqFW04SJGFO63MaMPkRKkKm2NAxqkhzewGg7s2J8pe5G9wurq74CMJKVJOwa-KUwWQokUhsggU-FA1V_Ec-v7Rn7Qw8rsDRTxJWxP8P3wubX0HjF4kqyIpHncDTykSfEizGWiDb_m40]--></g></svg>